<svg width="400" height="400" viewBox="0 0 400 400" fill="none" xmlns="http://www.w3.org/2000/svg">
<path d="M400 200C400 310.457 310.457 400 200 400C89.5431 400 0 310.457 0 200C0 89.5431 89.5431 0 200 0C310.457 0 400 89.5431 400 200Z" fill="#161100"/>
<path d="M400 200C400 310.457 310.457 400 200 400C89.5431 400 0 310.457 0 200C0 89.5431 89.5431 0 200 0C310.457 0 400 89.5431 400 200ZM40 200C40 288.366 111.634 360 200 360C288.366 360 360 288.366 360 200C360 111.634 288.366 40 200 40C111.634 40 40 111.634 40 200Z" fill="#4E410D"/>
</svg>
