<svg width="48" height="48" viewBox="0 0 48 48" fill="none" xmlns="http://www.w3.org/2000/svg">
<path d="M28.2308 37.6923V26.0327C28.2308 25.6461 28.0795 25.2754 27.8102 25.0021C27.5409 24.7288 27.1757 24.5752 26.7949 24.5752H21.0513C20.6705 24.5752 20.3052 24.7288 20.036 25.0021C19.7667 25.2754 19.6154 25.6461 19.6154 26.0327V37.6923M11 21.6603C10.9999 21.2363 11.0909 20.8174 11.2668 20.4327C11.4426 20.0481 11.699 19.707 12.0181 19.4333L22.0693 10.6886C22.5877 10.244 23.2444 10 23.9231 10C24.6017 10 25.2585 10.244 25.7768 10.6886L35.8281 19.4333C36.1472 19.707 36.4036 20.0481 36.5794 20.4327C36.7552 20.8174 36.8463 21.2363 36.8462 21.6603V34.7774C36.8462 35.5505 36.5436 36.2919 36.005 36.8386C35.4665 37.3852 34.736 37.6923 33.9744 37.6923H13.8718C13.1101 37.6923 12.3797 37.3852 11.8411 36.8386C11.3026 36.2919 11 35.5505 11 34.7774V21.6603Z" stroke="#F5F5F5" stroke-width="3" stroke-linecap="round" stroke-linejoin="round"/>
</svg>
