<svg width="48" height="48" viewBox="0 0 48 48" fill="none" xmlns="http://www.w3.org/2000/svg">
<path d="M23.5576 9C31.5976 9 38.116 15.5177 38.1162 23.5576C38.1162 31.5978 31.5978 38.1162 23.5576 38.1162C15.5177 38.116 9 31.5976 9 23.5576C9.00026 15.5178 15.5178 9.00024 23.5576 9ZM23.5576 12C17.1747 12.0002 12.0003 17.1747 12 23.5576C12 29.9408 17.1745 35.116 23.5576 35.1162C29.9409 35.1162 35.1162 29.9409 35.1162 23.5576C35.116 17.1745 29.9408 12 23.5576 12ZM23.5576 22.0576C24.3859 22.0576 25.0574 22.7294 25.0576 23.5576V28.7812C25.0574 29.6095 24.3859 30.2812 23.5576 30.2812C22.7295 30.281 22.0579 29.6093 22.0576 28.7812V23.5576C22.0579 22.7296 22.7296 22.0579 23.5576 22.0576ZM23.5703 16.835C24.3985 16.8352 25.0703 17.5067 25.0703 18.335C25.0703 19.1632 24.3985 19.8347 23.5703 19.835H23.5576C22.7294 19.8347 22.0577 19.1632 22.0576 18.335C22.0576 17.5067 22.7294 16.8352 23.5576 16.835H23.5703Z" fill="white"/>
</svg>
