<svg width="48" height="48" viewBox="0 0 48 48" fill="none" xmlns="http://www.w3.org/2000/svg">
<path d="M36.2445 8.98564C36.5778 8.86962 36.9338 8.83506 37.2816 8.88701L37.433 8.91533L37.5824 8.95439C37.8782 9.04273 38.1519 9.1936 38.3851 9.3958L38.4984 9.50127L38.6039 9.61455C38.8395 9.88638 39.0046 10.2131 39.0834 10.5657C39.1715 10.9608 39.146 11.3722 39.0131 11.7542L39.015 11.7552L30.1527 37.6585V37.6595C30.0083 38.0805 29.7381 38.4479 29.3793 38.7112C29.0205 38.9743 28.5896 39.1217 28.1449 39.1331C27.7 39.1444 27.2618 39.0192 26.89 38.7747C26.5184 38.5301 26.2296 38.1778 26.0638 37.7649V37.764L21.7289 26.9505V26.9515C21.6678 26.7999 21.5773 26.6622 21.4623 26.5462L21.4525 26.5364C21.3364 26.4221 21.1985 26.3314 21.0472 26.2708H21.0463L10.2347 21.9349C9.82203 21.7691 9.46947 21.4812 9.22498 21.1097C8.98049 20.7379 8.85524 20.2996 8.86658 19.8548L8.87732 19.6888C8.91669 19.3033 9.05807 18.9335 9.28845 18.6194C9.55162 18.2609 9.9186 17.9914 10.3392 17.847L10.3402 17.846L36.2445 8.98466V8.98564ZM24.4447 25.6761C24.4678 25.7275 24.491 25.7789 24.5121 25.8313L24.5131 25.8333L28.0277 34.6009L34.5316 15.5901L24.4447 25.6761ZM13.3978 19.971L22.1615 23.4856C22.2159 23.5074 22.2703 23.53 22.3236 23.554L32.4154 13.4642L13.3978 19.971Z" fill="white"/>
</svg>
