<svg width="48" height="48" viewBox="0 0 48 48" fill="none" xmlns="http://www.w3.org/2000/svg">
<path d="M28.955 15.1217C29.1017 15.2685 29.2848 15.3735 29.4856 15.4259C29.6864 15.4784 29.8975 15.4763 30.0972 15.42C30.2969 15.3636 30.478 15.255 30.6217 15.1054C30.7655 14.9557 30.8667 14.7705 30.915 14.5687C31.0361 14.0646 31.2894 13.6018 31.6488 13.2281C32.0082 12.8545 32.4607 12.5833 32.9598 12.4427C33.4588 12.302 33.9863 12.2969 34.4879 12.4279C34.9896 12.5589 35.4472 12.8212 35.8138 13.1879C36.1803 13.5546 36.4425 14.0123 36.5733 14.514C36.7041 15.0157 36.6989 15.5432 36.558 16.0422C36.4172 16.5411 36.1459 16.9936 35.7721 17.3528C35.3983 17.7121 34.9355 17.9652 34.4314 18.0862C34.2296 18.1345 34.0443 18.2357 33.8947 18.3795C33.745 18.5232 33.6364 18.7043 33.5801 18.904C33.5237 19.1037 33.5217 19.3148 33.5741 19.5156C33.6265 19.7164 33.7316 19.8995 33.8784 20.0462L35.8419 22.0085C36.1034 22.27 36.3109 22.5805 36.4524 22.9222C36.594 23.2639 36.6668 23.6301 36.6668 24C36.6668 24.3699 36.594 24.7361 36.4524 25.0778C36.3109 25.4195 36.1034 25.73 35.8419 25.9915L33.8784 27.955C33.7317 28.1018 33.5486 28.2068 33.3478 28.2593C33.147 28.3117 32.9359 28.3096 32.7362 28.2533C32.5365 28.1969 32.3554 28.0884 32.2117 27.9387C32.0679 27.7891 31.9667 27.6038 31.9184 27.402C31.7973 26.8979 31.544 26.4352 31.1846 26.0615C30.8252 25.6878 30.3727 25.4167 29.8737 25.276C29.3746 25.1354 28.8472 25.1303 28.3455 25.2613C27.8439 25.3922 27.3862 25.6546 27.0197 26.0212C26.6531 26.3879 26.3909 26.8457 26.2601 27.3473C26.1293 27.849 26.1346 28.3765 26.2754 28.8755C26.4162 29.3745 26.6875 29.8269 27.0613 30.1862C27.4351 30.5454 27.8979 30.7986 28.402 30.9195C28.6038 30.9678 28.7891 31.069 28.9388 31.2128C29.0884 31.3566 29.197 31.5376 29.2533 31.7373C29.3097 31.937 29.3117 32.1482 29.2593 32.3489C29.2069 32.5497 29.1018 32.7329 28.955 32.8795L26.9915 34.8418C26.73 35.1034 26.4195 35.3108 26.0778 35.4524C25.7361 35.5939 25.3699 35.6668 25 35.6668C24.6302 35.6668 24.2639 35.5939 23.9222 35.4524C23.5805 35.3108 23.2701 35.1034 23.0085 34.8418L21.045 32.8783C20.8984 32.7315 20.7152 32.6265 20.5145 32.5741C20.3137 32.5216 20.1026 32.5237 19.9029 32.58C19.7032 32.6364 19.5221 32.745 19.3783 32.8946C19.2346 33.0443 19.1333 33.2295 19.085 33.4313C18.9639 33.9355 18.7106 34.3982 18.3512 34.7719C17.9919 35.1455 17.5393 35.4167 17.0403 35.5573C16.5413 35.698 16.0138 35.7031 15.5122 35.5721C15.0105 35.4411 14.5529 35.1788 14.1863 34.8121C13.8198 34.4454 13.5576 33.9877 13.4268 33.486C13.296 32.9843 13.3012 32.4568 13.442 31.9578C13.5829 31.4589 13.8541 31.0065 14.2279 30.6472C14.6017 30.2879 15.0646 30.0348 15.5687 29.9138C15.7705 29.8655 15.9558 29.7643 16.1054 29.6205C16.2551 29.4768 16.3637 29.2957 16.42 29.096C16.4763 28.8963 16.4784 28.6852 16.426 28.4844C16.3735 28.2836 16.2685 28.1005 16.1217 27.9538L14.1582 25.9915C13.8967 25.73 13.6892 25.4195 13.5477 25.0778C13.4061 24.7361 13.3333 24.3699 13.3333 24C13.3333 23.6301 13.4061 23.2639 13.5477 22.9222C13.6892 22.5805 13.8967 22.27 14.1582 22.0085L16.1217 20.045C16.2684 19.8982 16.4515 19.7932 16.6523 19.7407C16.8531 19.6883 17.0642 19.6904 17.2639 19.7467C17.4636 19.8031 17.6447 19.9117 17.7884 20.0613C17.9322 20.2109 18.0334 20.3962 18.0817 20.598C18.2028 21.1021 18.4561 21.5649 18.8155 21.9385C19.1749 22.3122 19.6274 22.5833 20.1264 22.724C20.6254 22.8647 21.1529 22.8697 21.6546 22.7388C22.1562 22.6078 22.6139 22.3454 22.9804 21.9788C23.347 21.6121 23.6092 21.1543 23.74 20.6527C23.8708 20.151 23.8655 19.6235 23.7247 19.1245C23.5839 18.6255 23.3126 18.1731 22.9388 17.8139C22.565 17.4546 22.1022 17.2014 21.598 17.0805C21.3962 17.0322 21.211 16.931 21.0613 16.7872C20.9117 16.6435 20.8031 16.4624 20.7468 16.2627C20.6904 16.063 20.6883 15.8519 20.7408 15.6511C20.7932 15.4503 20.8982 15.2672 21.045 15.1205L23.0085 13.1582C23.2701 12.8966 23.5805 12.6892 23.9222 12.5476C24.2639 12.4061 24.6302 12.3332 25 12.3332C25.3699 12.3332 25.7361 12.4061 26.0778 12.5476C26.4195 12.6892 26.73 12.8966 26.9915 13.1582L28.955 15.1217Z" stroke="white" stroke-width="3" stroke-linecap="round" stroke-linejoin="round"/>
</svg>
