<svg width="48" height="48" viewBox="0 0 48 48" fill="none" xmlns="http://www.w3.org/2000/svg">
<path d="M34.208 9.375C36.6473 9.375 38.625 11.3527 38.625 13.792V34.208C38.625 36.6473 36.6473 38.625 34.208 38.625H13.792C11.3527 38.625 9.375 36.6473 9.375 34.208V13.792C9.375 11.3527 11.3527 9.375 13.792 9.375H34.208ZM13.792 12.375C13.0096 12.375 12.375 13.0096 12.375 13.792V34.208C12.375 34.9904 13.0096 35.625 13.792 35.625H34.208C34.9904 35.625 35.625 34.9904 35.625 34.208V13.792C35.625 13.0096 34.9904 12.375 34.208 12.375H13.792ZM28.375 23.958C29.2032 23.9582 29.8748 24.6298 29.875 25.458C29.875 26.2863 29.2033 26.9578 28.375 26.958H22.542C21.7136 26.958 21.042 26.2864 21.042 25.458C21.0422 24.6297 21.7137 23.958 22.542 23.958H28.375ZM15.6475 15.6475C16.2331 15.0618 17.1827 15.062 17.7686 15.6475L20.6855 18.5645C21.271 19.1503 21.2712 20.0999 20.6855 20.6855L17.7686 23.6016C17.1828 24.1873 16.2332 24.1873 15.6475 23.6016C15.0622 23.0157 15.0618 22.0661 15.6475 21.4805L17.5029 19.624L15.6475 17.7686C15.062 17.1827 15.0618 16.2331 15.6475 15.6475Z" fill="white"/>
</svg>
