<svg width="48" height="48" viewBox="0 0 48 48" fill="none" xmlns="http://www.w3.org/2000/svg">
<path d="M24.9531 9.29688C33.0482 9.29688 39.6112 15.8591 39.6113 23.9541C39.6111 32.049 33.0481 38.6123 24.9531 38.6123C21.728 38.6121 18.7466 37.5692 16.3262 35.8037C16.2898 35.7795 16.2546 35.7537 16.2207 35.7266C12.6259 33.0553 10.296 28.7767 10.2959 23.9541C10.2961 15.8594 16.8585 9.2973 24.9531 9.29688ZM24.9541 29.4014C24.9467 29.4014 24.939 29.4004 24.9316 29.4004C23.4174 29.4056 21.9538 29.9482 20.8018 30.9316C19.8814 31.7174 19.2079 32.7435 18.8506 33.8867C20.6257 34.9799 22.7155 35.6122 24.9531 35.6123C27.1906 35.6123 29.2804 34.9797 31.0557 33.8867C30.6982 32.7432 30.0252 31.7164 29.1045 30.9307C27.9524 29.9476 26.4886 29.4054 24.9746 29.4004C24.9678 29.4004 24.9609 29.4014 24.9541 29.4014ZM24.9531 12.2969C18.5153 12.2973 13.2961 17.5162 13.2959 23.9541C13.296 27.0174 14.4798 29.8032 16.4121 31.8838C16.9771 30.6498 17.8071 29.5435 18.8545 28.6494C19.3241 28.2486 19.8294 27.8986 20.3613 27.6006C19.0272 26.3651 18.1914 24.5993 18.1914 22.6377C18.1917 18.9029 21.2193 15.8752 24.9541 15.875C28.6889 15.8752 31.7175 18.9029 31.7178 22.6377C31.7178 24.5995 30.8804 26.3651 29.5459 27.6006C30.0772 27.8984 30.5826 28.2481 31.0518 28.6484C32.0998 29.5429 32.929 30.6502 33.4941 31.8848C35.4273 29.804 36.6112 27.018 36.6113 23.9541C36.6112 17.516 31.3913 12.2969 24.9531 12.2969ZM24.9541 18.875C22.8762 18.8752 21.1917 20.5598 21.1914 22.6377C21.1914 24.7085 22.8637 26.3883 24.9316 26.4004H24.9746C27.0433 26.3891 28.7178 24.709 28.7178 22.6377C28.7175 20.5598 27.032 18.8752 24.9541 18.875Z" fill="#F5F5F5"/>
</svg>
