<svg width="48" height="48" viewBox="0 0 48 48" fill="none" xmlns="http://www.w3.org/2000/svg">
<path d="M21.5556 22.8V30M26.4444 22.8V30M32.5556 16.8V33.6C32.5556 34.2365 32.298 34.847 31.8396 35.2971C31.3812 35.7471 30.7594 36 30.1111 36H17.8889C17.2406 36 16.6188 35.7471 16.1604 35.2971C15.702 34.847 15.4444 34.2365 15.4444 33.6V16.8M13 16.8H35M19.1111 16.8V14.4C19.1111 13.7635 19.3687 13.153 19.8271 12.7029C20.2855 12.2529 20.9072 12 21.5556 12H26.4444C27.0928 12 27.7145 12.2529 28.1729 12.7029C28.6313 13.153 28.8889 13.7635 28.8889 14.4V16.8" stroke="#F5F5F5" stroke-width="3" stroke-linecap="round" stroke-linejoin="round"/>
</svg>
